<svg width="29" height="37" viewBox="0 0 29 37" fill="none" xmlns="http://www.w3.org/2000/svg">
<mask id="path-1-outside-1_1029_6244" maskUnits="userSpaceOnUse" x="-1" y="-0.00292969" width="30" height="37" fill="black">
<rect fill="white" x="-1" y="-0.00292969" width="30" height="37"/>
<path fill-rule="evenodd" clip-rule="evenodd" d="M22.75 28.9971C22.428 28.9971 22.1667 29.2584 22.1667 29.5804V30.7471C22.1667 31.0691 22.428 31.3304 22.75 31.3304C23.072 31.3304 23.3333 31.0691 23.3333 30.7471V29.5804C23.3333 29.2584 23.072 28.9971 22.75 28.9971ZM23.3333 22.5804C23.3333 22.2584 23.072 21.9971 22.75 21.9971C22.428 21.9971 22.1667 22.2584 22.1667 22.5804V27.2471C22.1667 27.5691 22.428 27.8304 22.75 27.8304C23.072 27.8304 23.3333 27.5691 23.3333 27.2471V22.5804ZM26.8333 16.1637H1.16667C0.52325 16.1637 0 16.687 0 17.3304V19.6637C0 20.3072 0.52325 20.8304 1.16667 20.8304V33.0804C1.16667 34.6887 2.47508 35.9971 4.08333 35.9971H23.9167C25.5249 35.9971 26.8333 34.6887 26.8333 33.0804V22.5804C26.8333 22.2584 26.572 21.9971 26.25 21.9971C25.928 21.9971 25.6667 22.2584 25.6667 22.5804V33.0804C25.6667 34.0452 24.8815 34.8304 23.9167 34.8304H4.08333C3.1185 34.8304 2.33333 34.0452 2.33333 33.0804V20.2471C2.33333 19.9251 2.072 19.6637 1.75 19.6637H1.16667V17.3304H26.8333V19.6637H4.08333C3.76133 19.6637 3.5 19.9251 3.5 20.2471C3.5 20.5691 3.76133 20.8304 4.08333 20.8304H26.8333C27.4767 20.8304 28 20.3072 28 19.6637V17.3304C28 16.687 27.4767 16.1637 26.8333 16.1637ZM12.8333 10.6022V14.4137C12.8333 14.7357 13.0947 14.9971 13.4167 14.9971C13.7387 14.9971 14 14.7357 14 14.4137V10.3304C14 10.1472 13.9125 9.9734 13.7661 9.86315C13.1734 9.41749 12.8333 8.73732 12.8333 7.99707C12.8333 6.5294 14.2456 4.03974 15.1667 2.62049C16.0877 4.03974 17.5 6.5294 17.5 7.99707C17.5 9.10599 16.7125 10.0679 15.6281 10.2849C15.3119 10.3479 15.1066 10.6553 15.1702 10.9709C15.2332 11.2871 15.5406 11.4901 15.8562 11.4288C17.4848 11.1039 18.6667 9.66074 18.6667 7.99707C18.6667 5.50565 15.7646 1.41415 15.6415 1.24149C15.4222 0.934654 14.9112 0.934654 14.6918 1.24149C14.5687 1.41415 11.6667 5.50565 11.6667 7.99707C11.6667 8.9969 12.0802 9.9244 12.8333 10.6022ZM1.75 14.9971H2.91667C3.23867 14.9971 3.5 14.7357 3.5 14.4137C3.5 14.0917 3.23867 13.8304 2.91667 13.8304H2.33333V12.6637H5.25C5.572 12.6637 5.83333 12.4024 5.83333 12.0804C5.83333 11.7584 5.572 11.4971 5.25 11.4971H2.33333V10.3304H2.91667C3.23867 10.3304 3.5 10.0691 3.5 9.74707C3.5 9.42507 3.23867 9.16374 2.91667 9.16374H2.33333V7.99707H2.91667C3.23867 7.99707 3.5 7.73574 3.5 7.41374C3.5 7.09174 3.23867 6.8304 2.91667 6.8304H2.33333V5.66374H5.25C5.572 5.66374 5.83333 5.4024 5.83333 5.0804C5.83333 4.7584 5.572 4.49707 5.25 4.49707H2.33333V2.16374H9.33333V14.4137C9.33333 14.7357 9.59467 14.9971 9.91667 14.9971C10.2387 14.9971 10.5 14.7357 10.5 14.4137V1.5804C10.5 1.2584 10.2387 0.99707 9.91667 0.99707H1.75C1.428 0.99707 1.16667 1.2584 1.16667 1.5804V14.4137C1.16667 14.7357 1.428 14.9971 1.75 14.9971ZM22.75 8.5804V14.4137C22.75 14.7357 23.0113 14.9971 23.3333 14.9971C23.6553 14.9971 23.9167 14.7357 23.9167 14.4137V8.5804C23.9167 8.2584 23.6553 7.99707 23.3333 7.99707C23.0113 7.99707 22.75 8.2584 22.75 8.5804ZM26.25 7.99707C25.928 7.99707 25.6667 8.2584 25.6667 8.5804V14.4137C25.6667 14.7357 25.928 14.9971 26.25 14.9971C26.572 14.9971 26.8333 14.7357 26.8333 14.4137V8.5804C26.8333 8.2584 26.572 7.99707 26.25 7.99707ZM20.4167 14.9971C20.7387 14.9971 21 14.7357 21 14.4137V6.41449L23.3333 2.68115L25.1977 5.66374H22.75C22.428 5.66374 22.1667 5.92507 22.1667 6.24707C22.1667 6.56907 22.428 6.8304 22.75 6.8304H26.25C26.4623 6.8304 26.6572 6.71549 26.7604 6.52999C26.8631 6.34449 26.8572 6.11757 26.7447 5.9379L23.828 1.27124C23.6145 0.929987 23.0522 0.929987 22.8387 1.27124L19.922 5.9379C19.8642 6.03065 19.8333 6.1374 19.8333 6.24707V14.4137C19.8333 14.7357 20.0947 14.9971 20.4167 14.9971ZM17.5 12.6637V14.4137C17.5 14.7357 17.2387 14.9971 16.9167 14.9971C16.5947 14.9971 16.3333 14.7357 16.3333 14.4137V12.6637C16.3333 12.3417 16.5947 12.0804 16.9167 12.0804C17.2387 12.0804 17.5 12.3417 17.5 12.6637Z"/>
</mask>
<path fill-rule="evenodd" clip-rule="evenodd" d="M22.75 28.9971C22.428 28.9971 22.1667 29.2584 22.1667 29.5804V30.7471C22.1667 31.0691 22.428 31.3304 22.75 31.3304C23.072 31.3304 23.3333 31.0691 23.3333 30.7471V29.5804C23.3333 29.2584 23.072 28.9971 22.75 28.9971ZM23.3333 22.5804C23.3333 22.2584 23.072 21.9971 22.75 21.9971C22.428 21.9971 22.1667 22.2584 22.1667 22.5804V27.2471C22.1667 27.5691 22.428 27.8304 22.75 27.8304C23.072 27.8304 23.3333 27.5691 23.3333 27.2471V22.5804ZM26.8333 16.1637H1.16667C0.52325 16.1637 0 16.687 0 17.3304V19.6637C0 20.3072 0.52325 20.8304 1.16667 20.8304V33.0804C1.16667 34.6887 2.47508 35.9971 4.08333 35.9971H23.9167C25.5249 35.9971 26.8333 34.6887 26.8333 33.0804V22.5804C26.8333 22.2584 26.572 21.9971 26.25 21.9971C25.928 21.9971 25.6667 22.2584 25.6667 22.5804V33.0804C25.6667 34.0452 24.8815 34.8304 23.9167 34.8304H4.08333C3.1185 34.8304 2.33333 34.0452 2.33333 33.0804V20.2471C2.33333 19.9251 2.072 19.6637 1.75 19.6637H1.16667V17.3304H26.8333V19.6637H4.08333C3.76133 19.6637 3.5 19.9251 3.5 20.2471C3.5 20.5691 3.76133 20.8304 4.08333 20.8304H26.8333C27.4767 20.8304 28 20.3072 28 19.6637V17.3304C28 16.687 27.4767 16.1637 26.8333 16.1637ZM12.8333 10.6022V14.4137C12.8333 14.7357 13.0947 14.9971 13.4167 14.9971C13.7387 14.9971 14 14.7357 14 14.4137V10.3304C14 10.1472 13.9125 9.9734 13.7661 9.86315C13.1734 9.41749 12.8333 8.73732 12.8333 7.99707C12.8333 6.5294 14.2456 4.03974 15.1667 2.62049C16.0877 4.03974 17.5 6.5294 17.5 7.99707C17.5 9.10599 16.7125 10.0679 15.6281 10.2849C15.3119 10.3479 15.1066 10.6553 15.1702 10.9709C15.2332 11.2871 15.5406 11.4901 15.8562 11.4288C17.4848 11.1039 18.6667 9.66074 18.6667 7.99707C18.6667 5.50565 15.7646 1.41415 15.6415 1.24149C15.4222 0.934654 14.9112 0.934654 14.6918 1.24149C14.5687 1.41415 11.6667 5.50565 11.6667 7.99707C11.6667 8.9969 12.0802 9.9244 12.8333 10.6022ZM1.75 14.9971H2.91667C3.23867 14.9971 3.5 14.7357 3.5 14.4137C3.5 14.0917 3.23867 13.8304 2.91667 13.8304H2.33333V12.6637H5.25C5.572 12.6637 5.83333 12.4024 5.83333 12.0804C5.83333 11.7584 5.572 11.4971 5.25 11.4971H2.33333V10.3304H2.91667C3.23867 10.3304 3.5 10.0691 3.5 9.74707C3.5 9.42507 3.23867 9.16374 2.91667 9.16374H2.33333V7.99707H2.91667C3.23867 7.99707 3.5 7.73574 3.5 7.41374C3.5 7.09174 3.23867 6.8304 2.91667 6.8304H2.33333V5.66374H5.25C5.572 5.66374 5.83333 5.4024 5.83333 5.0804C5.83333 4.7584 5.572 4.49707 5.25 4.49707H2.33333V2.16374H9.33333V14.4137C9.33333 14.7357 9.59467 14.9971 9.91667 14.9971C10.2387 14.9971 10.5 14.7357 10.5 14.4137V1.5804C10.5 1.2584 10.2387 0.99707 9.91667 0.99707H1.75C1.428 0.99707 1.16667 1.2584 1.16667 1.5804V14.4137C1.16667 14.7357 1.428 14.9971 1.75 14.9971ZM22.75 8.5804V14.4137C22.75 14.7357 23.0113 14.9971 23.3333 14.9971C23.6553 14.9971 23.9167 14.7357 23.9167 14.4137V8.5804C23.9167 8.2584 23.6553 7.99707 23.3333 7.99707C23.0113 7.99707 22.75 8.2584 22.75 8.5804ZM26.25 7.99707C25.928 7.99707 25.6667 8.2584 25.6667 8.5804V14.4137C25.6667 14.7357 25.928 14.9971 26.25 14.9971C26.572 14.9971 26.8333 14.7357 26.8333 14.4137V8.5804C26.8333 8.2584 26.572 7.99707 26.25 7.99707ZM20.4167 14.9971C20.7387 14.9971 21 14.7357 21 14.4137V6.41449L23.3333 2.68115L25.1977 5.66374H22.75C22.428 5.66374 22.1667 5.92507 22.1667 6.24707C22.1667 6.56907 22.428 6.8304 22.75 6.8304H26.25C26.4623 6.8304 26.6572 6.71549 26.7604 6.52999C26.8631 6.34449 26.8572 6.11757 26.7447 5.9379L23.828 1.27124C23.6145 0.929987 23.0522 0.929987 22.8387 1.27124L19.922 5.9379C19.8642 6.03065 19.8333 6.1374 19.8333 6.24707V14.4137C19.8333 14.7357 20.0947 14.9971 20.4167 14.9971ZM17.5 12.6637V14.4137C17.5 14.7357 17.2387 14.9971 16.9167 14.9971C16.5947 14.9971 16.3333 14.7357 16.3333 14.4137V12.6637C16.3333 12.3417 16.5947 12.0804 16.9167 12.0804C17.2387 12.0804 17.5 12.3417 17.5 12.6637Z" fill="#6851FF"/>
<path fill-rule="evenodd" clip-rule="evenodd" d="M22.75 28.9971C22.428 28.9971 22.1667 29.2584 22.1667 29.5804V30.7471C22.1667 31.0691 22.428 31.3304 22.75 31.3304C23.072 31.3304 23.3333 31.0691 23.3333 30.7471V29.5804C23.3333 29.2584 23.072 28.9971 22.75 28.9971ZM23.3333 22.5804C23.3333 22.2584 23.072 21.9971 22.75 21.9971C22.428 21.9971 22.1667 22.2584 22.1667 22.5804V27.2471C22.1667 27.5691 22.428 27.8304 22.75 27.8304C23.072 27.8304 23.3333 27.5691 23.3333 27.2471V22.5804ZM26.8333 16.1637H1.16667C0.52325 16.1637 0 16.687 0 17.3304V19.6637C0 20.3072 0.52325 20.8304 1.16667 20.8304V33.0804C1.16667 34.6887 2.47508 35.9971 4.08333 35.9971H23.9167C25.5249 35.9971 26.8333 34.6887 26.8333 33.0804V22.5804C26.8333 22.2584 26.572 21.9971 26.25 21.9971C25.928 21.9971 25.6667 22.2584 25.6667 22.5804V33.0804C25.6667 34.0452 24.8815 34.8304 23.9167 34.8304H4.08333C3.1185 34.8304 2.33333 34.0452 2.33333 33.0804V20.2471C2.33333 19.9251 2.072 19.6637 1.75 19.6637H1.16667V17.3304H26.8333V19.6637H4.08333C3.76133 19.6637 3.5 19.9251 3.5 20.2471C3.5 20.5691 3.76133 20.8304 4.08333 20.8304H26.8333C27.4767 20.8304 28 20.3072 28 19.6637V17.3304C28 16.687 27.4767 16.1637 26.8333 16.1637ZM12.8333 10.6022V14.4137C12.8333 14.7357 13.0947 14.9971 13.4167 14.9971C13.7387 14.9971 14 14.7357 14 14.4137V10.3304C14 10.1472 13.9125 9.9734 13.7661 9.86315C13.1734 9.41749 12.8333 8.73732 12.8333 7.99707C12.8333 6.5294 14.2456 4.03974 15.1667 2.62049C16.0877 4.03974 17.5 6.5294 17.5 7.99707C17.5 9.10599 16.7125 10.0679 15.6281 10.2849C15.3119 10.3479 15.1066 10.6553 15.1702 10.9709C15.2332 11.2871 15.5406 11.4901 15.8562 11.4288C17.4848 11.1039 18.6667 9.66074 18.6667 7.99707C18.6667 5.50565 15.7646 1.41415 15.6415 1.24149C15.4222 0.934654 14.9112 0.934654 14.6918 1.24149C14.5687 1.41415 11.6667 5.50565 11.6667 7.99707C11.6667 8.9969 12.0802 9.9244 12.8333 10.6022ZM1.75 14.9971H2.91667C3.23867 14.9971 3.5 14.7357 3.5 14.4137C3.5 14.0917 3.23867 13.8304 2.91667 13.8304H2.33333V12.6637H5.25C5.572 12.6637 5.83333 12.4024 5.83333 12.0804C5.83333 11.7584 5.572 11.4971 5.25 11.4971H2.33333V10.3304H2.91667C3.23867 10.3304 3.5 10.0691 3.5 9.74707C3.5 9.42507 3.23867 9.16374 2.91667 9.16374H2.33333V7.99707H2.91667C3.23867 7.99707 3.5 7.73574 3.5 7.41374C3.5 7.09174 3.23867 6.8304 2.91667 6.8304H2.33333V5.66374H5.25C5.572 5.66374 5.83333 5.4024 5.83333 5.0804C5.83333 4.7584 5.572 4.49707 5.25 4.49707H2.33333V2.16374H9.33333V14.4137C9.33333 14.7357 9.59467 14.9971 9.91667 14.9971C10.2387 14.9971 10.5 14.7357 10.5 14.4137V1.5804C10.5 1.2584 10.2387 0.99707 9.91667 0.99707H1.75C1.428 0.99707 1.16667 1.2584 1.16667 1.5804V14.4137C1.16667 14.7357 1.428 14.9971 1.75 14.9971ZM22.75 8.5804V14.4137C22.75 14.7357 23.0113 14.9971 23.3333 14.9971C23.6553 14.9971 23.9167 14.7357 23.9167 14.4137V8.5804C23.9167 8.2584 23.6553 7.99707 23.3333 7.99707C23.0113 7.99707 22.75 8.2584 22.75 8.5804ZM26.25 7.99707C25.928 7.99707 25.6667 8.2584 25.6667 8.5804V14.4137C25.6667 14.7357 25.928 14.9971 26.25 14.9971C26.572 14.9971 26.8333 14.7357 26.8333 14.4137V8.5804C26.8333 8.2584 26.572 7.99707 26.25 7.99707ZM20.4167 14.9971C20.7387 14.9971 21 14.7357 21 14.4137V6.41449L23.3333 2.68115L25.1977 5.66374H22.75C22.428 5.66374 22.1667 5.92507 22.1667 6.24707C22.1667 6.56907 22.428 6.8304 22.75 6.8304H26.25C26.4623 6.8304 26.6572 6.71549 26.7604 6.52999C26.8631 6.34449 26.8572 6.11757 26.7447 5.9379L23.828 1.27124C23.6145 0.929987 23.0522 0.929987 22.8387 1.27124L19.922 5.9379C19.8642 6.03065 19.8333 6.1374 19.8333 6.24707V14.4137C19.8333 14.7357 20.0947 14.9971 20.4167 14.9971ZM17.5 12.6637V14.4137C17.5 14.7357 17.2387 14.9971 16.9167 14.9971C16.5947 14.9971 16.3333 14.7357 16.3333 14.4137V12.6637C16.3333 12.3417 16.5947 12.0804 16.9167 12.0804C17.2387 12.0804 17.5 12.3417 17.5 12.6637Z" stroke="#6851FF" stroke-width="0.4" mask="url(#path-1-outside-1_1029_6244)"/>
</svg>
